<svg width="200" height="47" viewBox="0 0 200 47" fill="none" xmlns="http://www.w3.org/2000/svg">
<g clip-path="url(#clip0_3_186)">
<path d="M200 31.5664C198.435 31.5723 196.87 31.5781 195.305 31.581C194.646 31.581 194.649 31.581 194.649 30.9125C194.649 27.8996 194.663 24.8867 194.64 21.8739C194.634 20.9309 194.436 19.9937 193.51 19.5062C192.147 18.7909 189.773 19.3047 189.326 21.4418C189.218 21.9614 189.18 22.4782 189.18 23.0066C189.183 25.7188 189.181 28.428 189.189 31.1373C189.189 31.4789 189.143 31.6044 188.737 31.5927C187.224 31.5577 185.712 31.5723 184.197 31.5927C183.899 31.5956 183.85 31.511 183.85 31.2395C183.864 28.1886 183.89 25.1349 183.85 22.0841C183.838 21.2958 183.698 20.4842 183.102 19.8536C182.711 19.439 182.247 19.2347 181.669 19.2318C180.991 19.2318 180.332 19.258 179.739 19.6405C178.793 20.2506 178.501 21.2082 178.393 22.2359C178.323 22.9015 178.358 23.5759 178.358 24.2474C178.358 26.5742 178.358 28.9039 178.367 31.2336C178.367 31.511 178.288 31.5927 178.008 31.5927C176.466 31.5781 174.928 31.5781 173.389 31.5927C173.077 31.5927 172.986 31.5051 172.986 31.1869C172.995 25.9494 172.995 20.7148 172.986 15.4773C172.986 15.1825 173.059 15.0978 173.366 15.1007C174.84 15.1153 176.312 15.1066 177.786 15.0949C178.011 15.0949 178.139 15.1299 178.13 15.3898C178.11 15.9153 178.104 16.4408 178.092 16.9663C178.092 17.0538 178.022 17.1706 178.122 17.2144C178.244 17.2699 178.303 17.1444 178.355 17.0597C178.91 16.1839 179.713 15.6087 180.647 15.2088C181.786 14.7212 182.974 14.6424 184.194 14.7825C185.19 14.8964 186.115 15.1708 186.935 15.7693C187.505 16.1839 187.998 16.6597 188.308 17.3078C188.354 17.4071 188.378 17.5648 188.506 17.5706C188.655 17.5793 188.635 17.3954 188.684 17.3049C189.315 16.2072 190.24 15.4569 191.426 15.0774C193.081 14.546 194.774 14.5431 196.418 15.1007C198.085 15.6642 199.066 16.9225 199.562 18.5836C199.691 19.0099 199.813 19.442 199.819 19.8945C199.819 20.0317 199.845 20.1572 200.003 20.1981V31.5694L200 31.5664ZM117.161 23.3132C117.161 25.9465 117.166 28.5769 117.155 31.2103C117.155 31.5285 117.245 31.5986 117.563 31.5927C119.102 31.5723 120.643 31.5781 122.182 31.5986C122.491 31.6015 122.529 31.4818 122.529 31.2278C122.521 28.4368 122.518 25.6487 122.521 22.8577C122.521 22.3293 122.62 21.8096 122.751 21.3017C123.058 20.1076 124.01 19.2376 125.577 19.2142C126.763 19.1967 127.653 19.9558 127.852 20.9659C127.942 21.4214 127.986 21.8739 127.986 22.3351C127.986 25.3101 127.986 28.2821 127.977 31.257C127.977 31.5197 128.059 31.5956 128.319 31.5927C129.883 31.584 131.451 31.5869 133.016 31.5927C133.288 31.5927 133.387 31.5022 133.387 31.2249C133.378 28.6849 133.378 26.145 133.378 23.6051C133.378 23.0008 133.337 22.3935 133.439 21.795C133.585 20.9396 133.912 20.1923 134.677 19.693C135.317 19.2756 136.02 19.2055 136.753 19.2318C137.293 19.2522 137.746 19.4449 138.125 19.8244C138.709 20.4112 138.837 21.1761 138.843 21.9323C138.864 25.0386 138.837 28.1419 138.823 31.2482C138.823 31.4789 138.881 31.5927 139.129 31.5898C140.694 31.5869 142.259 31.584 143.827 31.5898C144.066 31.5898 144.148 31.4993 144.148 31.2599C144.139 28.1273 144.128 24.9977 144.133 21.8651C144.133 20.7032 144.055 19.5558 143.701 18.4435C143.141 16.6831 142.034 15.4627 140.213 14.9752C139.176 14.6979 138.119 14.6482 137.051 14.7592C135.944 14.8759 134.92 15.1883 134.061 15.9299C133.603 16.324 133.174 16.7473 132.867 17.2786C132.809 17.3808 132.742 17.4859 132.604 17.4888C132.517 17.4888 132.526 17.4042 132.499 17.3458C132.199 16.6772 131.705 16.1576 131.113 15.7664C129.224 14.5168 127.177 14.4322 125.081 15.1095C124.021 15.4511 123.142 16.0904 122.541 17.0568C122.491 17.1356 122.509 17.302 122.36 17.2582C122.235 17.2203 122.278 17.083 122.281 16.9809C122.29 16.4554 122.296 15.9299 122.31 15.4044C122.316 15.1533 122.237 15.0832 121.963 15.0891C120.489 15.1124 119.014 15.1212 117.543 15.092C117.219 15.0861 117.166 15.1679 117.166 15.4511C117.175 18.0698 117.172 20.6886 117.172 23.3073M165.524 29.4177C165.647 29.5024 165.615 29.6133 165.615 29.7126C165.609 30.2264 165.615 30.7402 165.594 31.2511C165.585 31.5227 165.658 31.5956 165.953 31.5927C167.387 31.5694 168.82 31.5548 170.254 31.5927C170.671 31.6044 170.727 31.4905 170.727 31.1256C170.718 26.0604 170.721 20.9951 170.724 15.9299C170.724 15.7343 170.724 15.5357 170.721 15.3372C170.721 15.1387 170.645 15.0861 170.429 15.0891C168.89 15.1095 167.352 15.1241 165.813 15.1007C165.489 15.0949 165.407 15.1533 165.407 15.4715C165.407 18.3267 165.407 21.179 165.381 24.0343C165.375 24.6882 165.25 25.3334 164.964 25.9407C164.313 27.3216 162.929 27.631 161.557 27.4033C160.754 27.2719 160.22 26.7756 159.898 26.0428C159.598 25.3568 159.536 24.6211 159.539 23.8824C159.539 21.0652 159.545 18.2508 159.554 15.4365C159.554 15.1912 159.495 15.0832 159.218 15.092C157.639 15.1387 156.062 15.1358 154.483 15.092C154.24 15.0861 154.162 15.165 154.162 15.4102C154.173 18.0669 154.179 20.7236 154.182 23.3832C154.185 24.9451 154.205 26.5041 154.614 28.031C155.046 29.6542 155.963 30.8658 157.554 31.4847C158.748 31.9489 160.006 32.0657 161.273 31.9314C163.057 31.7445 164.52 30.9884 165.518 29.4148M76.4079 23.3248C76.4079 25.9699 76.4108 28.612 76.402 31.257C76.402 31.5518 76.5042 31.5927 76.7728 31.5898C78.3114 31.5723 79.8499 31.5664 81.3885 31.5898C81.7008 31.5956 81.7417 31.4876 81.7417 31.2365C81.7359 29.0002 81.7388 26.7639 81.73 24.5276C81.7271 23.8036 81.7738 23.0796 81.8935 22.3702C82.1008 21.1498 82.6088 20.0872 83.8408 19.6084C85.2713 19.0537 86.7457 19.1062 88.2112 19.4974C88.436 19.5558 88.5032 19.5325 88.5032 19.3164C88.5032 17.9092 88.5032 16.5021 88.5032 15.0949C88.5032 14.9694 88.4886 14.8555 88.3338 14.8321C87.2507 14.6716 86.1589 14.6278 85.0933 14.911C83.6861 15.2847 82.6789 16.1868 81.9724 17.4421C81.9256 17.5239 81.9286 17.6874 81.7855 17.6436C81.66 17.6056 81.7125 17.4655 81.7154 17.3662C81.7242 16.721 81.733 16.0788 81.7476 15.4336C81.7534 15.1737 81.6921 15.092 81.3855 15.0978C79.847 15.127 78.3084 15.1241 76.7699 15.1007C76.4721 15.0949 76.4108 15.162 76.4108 15.4365C76.4196 18.0669 76.4166 20.6973 76.4137 23.3278M151.884 23.354C151.884 20.709 151.884 18.064 151.884 15.419C151.884 15.1883 151.814 15.0891 151.563 15.092C150.182 15.1095 148.802 15.1153 147.418 15.1212C146.516 15.1241 146.516 15.1212 146.516 16.0204C146.516 20.8375 146.516 25.6546 146.516 30.4717C146.516 30.7227 146.516 30.9738 146.486 31.219C146.454 31.4993 146.559 31.5927 146.837 31.5898C148.402 31.581 149.969 31.581 151.534 31.5898C151.794 31.5898 151.884 31.5022 151.882 31.2482C151.876 28.6178 151.879 25.9845 151.879 23.354M148.475 7.52768C148.442 7.54227 148.407 7.55979 148.375 7.57439C148.223 7.72328 148.007 7.68533 147.832 7.77291C146.422 8.48234 145.824 10.0442 146.2 11.4105C146.583 12.8031 147.826 13.7403 149.228 13.6906C151.163 13.6235 152.428 12.082 152.229 10.1639C152.112 9.01368 151.196 7.90721 150.177 7.67949C149.625 7.46637 149.047 7.52476 148.475 7.52476M110.133 21.4681C110.373 21.471 110.446 21.3892 110.42 21.1761C110.344 20.5338 110.113 19.9587 109.669 19.4799C108.747 18.4902 107.608 18.2742 106.321 18.4902C104.978 18.715 103.787 19.8157 103.518 21.1411C103.471 21.3659 103.503 21.4739 103.784 21.4681C104.835 21.4505 105.889 21.4622 106.94 21.4622C108.005 21.4622 109.071 21.4535 110.136 21.4681M97.3345 28.139C98.5607 27.5434 98.9256 26.4428 99.0278 25.1962C99.0482 24.9597 98.9052 24.9189 98.7067 24.9159C97.6031 24.8984 96.5083 25.0094 95.4164 25.1174C94.7712 25.1816 94.1319 25.3626 93.5626 25.7188C93.0604 26.0341 92.786 26.472 92.8648 27.0617C92.9407 27.6164 93.256 28.0252 93.7961 28.2295C94.3304 28.431 94.8909 28.4777 95.4836 28.4601C96.1083 28.4893 96.7477 28.428 97.3374 28.139M115.187 19.7456C115.704 21.1936 115.788 22.6972 115.759 24.2153C115.745 24.9305 115.759 24.9276 115.044 24.9276C113.24 24.9276 111.438 24.9276 109.634 24.9276V24.9189C107.701 24.9189 105.766 24.9247 103.83 24.9159C103.538 24.9159 103.454 24.9626 103.57 25.2692C103.95 26.2706 104.511 27.1201 105.494 27.6135C107.237 28.4864 109.322 28.1215 110.688 26.6705C110.744 26.6121 110.802 26.5596 110.855 26.5041C111.252 26.0779 111.243 26.0866 111.742 26.4399C112.726 27.1406 113.716 27.8383 114.717 28.5127C114.942 28.6674 114.939 28.7784 114.772 28.9389C114.031 29.6659 113.266 30.3636 112.326 30.8366C110.638 31.6891 108.861 32.0686 106.969 31.9518C105.982 31.8905 105.004 31.7854 104.061 31.4935C102.89 31.1256 101.839 30.5592 101.057 29.5754C100.96 29.4557 100.89 29.2338 100.689 29.5053C100.053 30.3695 99.1679 30.8979 98.187 31.2687C96.3711 31.9547 94.4851 32.1241 92.5729 31.8642C91.0489 31.6569 89.7147 31.0526 88.7075 29.8206C87.4405 28.2704 87.3588 25.5057 88.7367 23.9379C89.5513 23.0125 90.5877 22.5015 91.735 22.16C94.0063 21.4856 96.3419 21.4359 98.6833 21.4593C98.8585 21.4593 99.0687 21.4768 99.0307 21.217C98.9052 20.347 98.6745 19.5208 97.9768 18.9048C97.2002 18.2187 96.2689 18.134 95.3084 18.2391C93.9363 18.388 92.7889 19.0157 91.8401 20.0083C91.7 20.1543 91.6299 20.1514 91.4956 20.0171C90.6752 19.2055 89.8549 18.3939 89.0228 17.5969C88.8243 17.4071 88.8477 17.2932 89.0491 17.1298C90.4067 16.0408 91.9511 15.3606 93.6443 14.9898C94.5873 14.7854 95.5449 14.6833 96.4966 14.7095C98.4322 14.7621 100.269 15.1912 101.763 16.5429C101.912 16.6772 102.017 16.6364 102.134 16.5313C103.171 15.5883 104.44 15.1212 105.778 14.8789C106.726 14.7066 107.699 14.6482 108.677 14.7562C109.882 14.8876 111.018 15.2029 112.063 15.8248C113.599 16.7385 114.588 18.0873 115.181 19.7456M63.2557 27.5493C63.9009 27.9376 64.6308 28.1332 65.4512 28.1332C66.3095 28.1332 67.0686 27.9376 67.7225 27.5493C68.3765 27.161 68.8874 26.618 69.2581 25.9231C69.626 25.2283 69.8099 24.4284 69.8099 23.5292C69.8099 22.63 69.626 21.8359 69.2581 21.1498C68.8903 20.4638 68.3794 19.9208 67.7225 19.5237C67.0686 19.1237 66.3095 18.9252 65.4512 18.9252C64.5929 18.9252 63.9009 19.1208 63.2557 19.5091C62.6105 19.8974 62.1084 20.4404 61.7522 21.1352C61.3931 21.8301 61.215 22.63 61.215 23.5292C61.215 24.4284 61.3931 25.2283 61.7522 25.9231C62.1113 26.618 62.6105 27.161 63.2557 27.5493ZM56.6082 38.0476V15.1474H60.9056V18.3384L60.5056 17.4188C61.0574 16.5809 61.8106 15.9299 62.7624 15.4686C63.7141 15.0073 64.8031 14.7767 66.0321 14.7767C67.6291 14.7767 69.0713 15.165 70.3617 15.9445C71.6521 16.721 72.6739 17.772 73.43 19.0916C74.1862 20.4112 74.5657 21.8914 74.5657 23.5263C74.5657 25.1612 74.192 26.618 73.4446 27.9463C72.6973 29.2776 71.6784 30.3315 70.3909 31.1081C69.1005 31.8847 67.6378 32.273 66 32.273C64.8527 32.273 63.7958 32.0628 62.8237 31.6453C61.8515 31.2249 61.0691 30.6059 60.4764 29.7885L61.2121 28.8368V38.0447H56.6082V38.0476Z" fill="white"/>
<path d="M18.6115 0.734109C19.0144 0.500553 19.3297 0.389614 19.5457 0.389614C19.9866 0.389614 20.0187 0.847968 19.5457 1.66833L1.27872 33.1984C0.569293 34.4217 0 34.2669 0 32.8539L0.0262751 14.0205C0.0262751 12.6075 1.02181 10.888 2.24506 10.1815L18.6115 0.734109ZM22.1061 1.67125L40.2738 33.1371C40.9803 34.3604 41.5555 34.2086 41.5584 32.7955L41.5847 13.9621C41.5847 12.5491 40.595 10.8325 39.3717 10.126L23.0432 0.73119C22.6404 0.500553 22.3251 0.389614 22.109 0.389614C21.6653 0.389614 21.6302 0.847968 22.1061 1.67125ZM38.9659 35.3559L2.52825 35.4084C1.11523 35.4084 0.963419 35.9836 2.18667 36.6872L18.5122 46.079C19.7384 46.7856 21.7207 46.7826 22.9469 46.079L39.3104 36.6317C40.5308 35.9281 40.3819 35.3559 38.9776 35.3559H38.9688" fill="url(#paint0_linear_3_186)"/>
</g>
<defs>
<linearGradient id="paint0_linear_3_186" x1="10.9479" y1="54.6914" x2="54.3018" y2="-15.6674" gradientUnits="userSpaceOnUse">
<stop stop-color="#46C1EB"/>
<stop offset="0.498715" stop-color="#625AF6"/>
<stop offset="1" stop-color="#9351E8"/>
</linearGradient>
<clipPath id="clip0_3_186">
<rect width="200" height="46.2208" fill="white" transform="translate(0 0.389614)"/>
</clipPath>
</defs>
</svg>
